<svg xmlns="http://www.w3.org/2000/svg" width="30" height="44" viewBox="0 0 30 44" fill="none"><rect width="30" height="30" transform="translate(0 8)" fill="#00AEEF"></rect><path d="M18.9592 27.7C19.2926 27.7 19.5559 27.7933 19.7492 27.98C19.9426 28.16 20.0392 28.4 20.0392 28.7V30.5H9.79922V29.5C9.79922 29.3067 9.83922 29.1 9.91922 28.88C9.99922 28.66 10.1392 28.46 10.3392 28.28L14.5392 24.05C14.8992 23.69 15.2126 23.3467 15.4792 23.02C15.7459 22.6933 15.9659 22.3733 16.1392 22.06C16.3126 21.74 16.4426 21.4233 16.5292 21.11C16.6159 20.79 16.6592 20.4533 16.6592 20.1C16.6592 19.52 16.5192 19.0767 16.2392 18.77C15.9659 18.4567 15.5459 18.3 14.9792 18.3C14.5192 18.3 14.1292 18.4233 13.8092 18.67C13.4959 18.91 13.2792 19.21 13.1592 19.57C13.0192 19.9367 12.8359 20.18 12.6092 20.3C12.3826 20.42 12.0592 20.4467 11.6392 20.38L9.99922 20.09C10.1059 19.3633 10.3092 18.73 10.6092 18.19C10.9159 17.65 11.2926 17.2 11.7392 16.84C12.1926 16.48 12.7092 16.2133 13.2892 16.04C13.8692 15.86 14.4926 15.77 15.1592 15.77C15.8792 15.77 16.5259 15.8767 17.0992 16.09C17.6792 16.2967 18.1726 16.5867 18.5792 16.96C18.9859 17.3333 19.2959 17.78 19.5092 18.3C19.7292 18.8133 19.8392 19.38 19.8392 20C19.8392 20.5333 19.7626 21.0267 19.6092 21.48C19.4626 21.9333 19.2592 22.3667 18.9992 22.78C18.7392 23.1867 18.4359 23.5833 18.0892 23.97C17.7492 24.35 17.3859 24.7367 16.9992 25.13L14.1492 28.05C14.5159 27.9367 14.8792 27.85 15.2392 27.79C15.5992 27.73 15.9326 27.7 16.2392 27.7H18.9592Z" fill="white"></path></svg>