<svg xmlns="http://www.w3.org/2000/svg" width="32" height="32" viewBox="0 0 32 32" fill="none"><path d="M20.6875 5.25H11.0625C9.90234 5.25 9 6.19531 9 7.3125V25.1875C9 26.3477 9.90234 27.25 11.0625 27.25H20.6875C21.8047 27.25 22.75 26.3477 22.75 25.1875V7.3125C22.75 6.19531 21.8047 5.25 20.6875 5.25ZM15.875 25.875C15.1016 25.875 14.5 25.2734 14.5 24.5C14.5 23.7695 15.1016 23.125 15.875 23.125C16.6055 23.125 17.25 23.7695 17.25 24.5C17.25 25.2734 16.6055 25.875 15.875 25.875ZM20.6875 21.2344C20.6875 21.5352 20.4297 21.75 20.1719 21.75H11.5781C11.2773 21.75 11.0625 21.5352 11.0625 21.2344V7.82812C11.0625 7.57031 11.2773 7.3125 11.5781 7.3125H20.1719C20.4297 7.3125 20.6875 7.57031 20.6875 7.82812V21.2344Z" fill="white"></path><rect x="0.75" y="0.75" width="30.5" height="30.5" stroke="white" stroke-width="1.5"></rect></svg>