<svg xmlns="http://www.w3.org/2000/svg" width="68" height="26" viewBox="0 0 68 26" fill="none"><path d="M16.5 5H9.5C8.65625 5 8 5.6875 8 6.5V19.5C8 20.3438 8.65625 21 9.5 21H16.5C17.3125 21 18 20.3438 18 19.5V6.5C18 5.6875 17.3125 5 16.5 5ZM13 20C12.4375 20 12 19.5625 12 19C12 18.4688 12.4375 18 13 18C13.5312 18 14 18.4688 14 19C14 19.5625 13.5312 20 13 20ZM16.5 16.625C16.5 16.8438 16.3125 17 16.125 17H9.875C9.65625 17 9.5 16.8438 9.5 16.625V6.875C9.5 6.6875 9.65625 6.5 9.875 6.5H16.125C16.3125 6.5 16.5 6.6875 16.5 6.875V16.625Z" fill="white"></path><rect x="0.75" y="0.75" width="24.5" height="24.5" stroke="white" stroke-width="1.5"></rect><path d="M67.0703 1.625H42.6953V5.6875H67.0703V1.625Z" fill="white"></path><path d="M67.0703 10.9688H50.0078V15.0312H67.0703V10.9688Z" fill="white"></path><path d="M67.0703 20.3125H42.6953V24.375H67.0703V20.3125Z" fill="white"></path></svg>